<?xml version="1.0" encoding="utf-8"?>
<!-- Generator: Adobe Illustrator 17.0.2, SVG Export Plug-In . SVG Version: 6.00 Build 0)  -->
<!DOCTYPE svg PUBLIC "-//W3C//DTD SVG 1.1//EN" "http://www.w3.org/Graphics/SVG/1.1/DTD/svg11.dtd">
<svg version="1.1" id="Layer_1" xmlns="http://www.w3.org/2000/svg" xmlns:xlink="http://www.w3.org/1999/xlink" x="0px" y="0px"
	 width="20.125px" height="20.125px" viewBox="0 0 20.125 20.125" enable-background="new 0 0 20.125 20.125" xml:space="preserve">
<g>
	<path fill="#C24029" d="M10.063,0C4.505,0,0,4.505,0,10.063s4.505,10.062,10.062,10.062s10.062-4.505,10.062-10.062
		S15.62,0,10.063,0z M12.83,10.71l2.611,2.612c0.367,0.367,0.367,0.968,0,1.335l-0.744,0.744c-0.367,0.367-0.967,0.367-1.335,0
		l-2.611-2.611c-0.367-0.367-0.968-0.367-1.335,0l-2.612,2.611c-0.367,0.367-0.968,0.367-1.335,0l-0.744-0.744
		c-0.367-0.367-0.367-0.967,0-1.335l2.612-2.612c0.367-0.367,0.367-0.968,0-1.335L4.726,6.764c-0.367-0.367-0.367-0.968,0-1.335
		L5.47,4.685c0.367-0.367,0.968-0.367,1.335,0l2.612,2.612c0.367,0.367,0.967,0.367,1.335,0l2.612-2.612
		c0.367-0.367,0.967-0.367,1.334,0l0.745,0.744c0.367,0.367,0.367,0.967,0,1.335L12.83,9.375
		C12.463,9.742,12.463,10.343,12.83,10.71z"/>
</g>
</svg>
